<?xml version="1.0" encoding="UTF-8"?>
<svg xmlns="http://www.w3.org/2000/svg" width="1050" height="610"
  viewBox="0 0 1050 610" role="img" aria-labelledby="title desc">
  <title id="title">Three-Bus Processor Organization</title>
  <desc id="desc">Three-Bus Processor Organization</desc>
  <defs>
    <marker id="arrow" viewBox="0 0 10 10" refX="9" refY="5"
      markerWidth="7" markerHeight="7" orient="auto-start-reverse">
      <path d="M 0 0 L 10 5 L 0 10 z" fill="#475569"/>
    </marker>
    <filter id="shadow" x="-10%" y="-10%" width="120%" height="130%">
      <feDropShadow dx="0" dy="2" stdDeviation="2" flood-color="#0f172a" flood-opacity=".12"/>
    </filter>
  </defs>
  <rect width="100%" height="100%" fill="#ffffff"/>
  <text x="525" y="32" text-anchor="middle" font-size="21"
    font-weight="700" fill="#0f172a">Three-Bus Processor Organization</text>
  <g filter="url(#shadow)">
    <rect x="55" y="120" width="245" height="150" rx="10"
      fill="#dbeafe" stroke="#334155" stroke-width="2"/>
    <text x="177.5" y="181"
      text-anchor="middle" font-size="15" font-weight="600"
      fill="#0f172a">Multiport Register File</text>
<text x="177.5" y="200"
      text-anchor="middle" font-size="15" font-weight="600"
      fill="#0f172a">Two Read Ports</text>
<text x="177.5" y="219"
      text-anchor="middle" font-size="15" font-weight="600"
      fill="#0f172a">One Write Port</text>

    <rect x="430" y="145" width="185" height="100" rx="10"
      fill="#e0f2fe" stroke="#334155" stroke-width="2"/>
    <text x="522.5" y="200"
      text-anchor="middle" font-size="15" font-weight="600"
      fill="#0f172a">ALU</text>

    <rect x="715" y="145" width="185" height="100" rx="10"
      fill="#eef2ff" stroke="#334155" stroke-width="2"/>
    <text x="807.5" y="200"
      text-anchor="middle" font-size="15" font-weight="600"
      fill="#0f172a">Shifter / Result</text>

    <rect x="70" y="365" width="170" height="90" rx="10"
      fill="#f8fafc" stroke="#334155" stroke-width="2"/>
    <text x="155" y="415"
      text-anchor="middle" font-size="15" font-weight="600"
      fill="#0f172a">MAR</text>

    <rect x="315" y="365" width="170" height="90" rx="10"
      fill="#f8fafc" stroke="#334155" stroke-width="2"/>
    <text x="400" y="415"
      text-anchor="middle" font-size="15" font-weight="600"
      fill="#0f172a">MDR</text>

    <rect x="715" y="350" width="230" height="115" rx="10"
      fill="#f1f5f9" stroke="#334155" stroke-width="2"/>
    <text x="830" y="412.5"
      text-anchor="middle" font-size="15" font-weight="600"
      fill="#0f172a">Main Memory</text>

    <rect x="430" y="500" width="185" height="65" rx="10"
      fill="#fff7ed" stroke="#334155" stroke-width="2"/>
    <text x="522.5" y="537.5"
      text-anchor="middle" font-size="15" font-weight="600"
      fill="#0f172a">Control Unit</text></g>
  <g><line x1="300" y1="155" x2="430" y2="175"
    stroke="#475569" stroke-width="2" marker-end="url(#arrow)"/><text x="365" y="150"
        text-anchor="middle" font-size="12.5" font-weight="600" fill="#475569">
        A bus</text>
<line x1="300" y1="230" x2="430" y2="215"
    stroke="#475569" stroke-width="2" marker-end="url(#arrow)"/><text x="365" y="245"
        text-anchor="middle" font-size="12.5" font-weight="600" fill="#475569">
        B bus</text>
<line x1="615" y1="195" x2="715" y2="195"
    stroke="#475569" stroke-width="2" marker-end="url(#arrow)"/>
<line x1="715" y1="235" x2="300" y2="255"
    stroke="#475569" stroke-width="2" marker-end="url(#arrow)"/><text x="507.5" y="285"
        text-anchor="middle" font-size="12.5" font-weight="600" fill="#475569">
        C bus</text>
<line x1="155" y1="270" x2="155" y2="365"
    stroke="#475569" stroke-width="2" marker-end="url(#arrow)"/><text x="155" y="310.5"
        text-anchor="middle" font-size="12.5" font-weight="600" fill="#475569">
        Address</text>
<line x1="240" y1="410" x2="315" y2="410"
    stroke="#475569" stroke-width="2" marker-end="url(#arrow)"/>
<line x1="485" y1="410" x2="715" y2="410"
    stroke="#475569" stroke-width="2" marker-end="url(#arrow)"/><text x="600" y="403"
        text-anchor="middle" font-size="12.5" font-weight="600" fill="#475569">
        Data</text>
<line x1="715" y1="380" x2="240" y2="380"
    stroke="#475569" stroke-width="2" marker-end="url(#arrow)"/><text x="477.5" y="373"
        text-anchor="middle" font-size="12.5" font-weight="600" fill="#475569">
        Address</text>
<line x1="522" y1="500" x2="522" y2="245"
    stroke="#475569" stroke-width="2" stroke-dasharray="7 5" marker-end="url(#arrow)"/><text x="580" y="390"
        text-anchor="middle" font-size="12.5" font-weight="600" fill="#475569">
        Control</text></g>
  
</svg>